[
  {
    "duration_time": "0.023220",
    "pts_time": "0.000000"
  },
  {
    "duration_time": "0.023220",
    "pts_time": "0.023220"
  },
  {
    "duration_time": "0.023220",
    "pts_time": "0.046440"
  },
  {
    "duration_time": "0.023220",
    "pts_time": "0.069660"
  },
  {
    "duration_time": "0.023220",
    "pts_time": "0.092880"
  },
  {
    "duration_time": "0.023220",
    "pts_time": "0.116100"
  },
  {
    "duration_time": "0.023220",
    "pts_time": "0.139320"
  },
  {
    "duration_time": "0.023220",
    "pts_time": "0.162540"
  },
  {
    "duration_time": "0.023220",
    "pts_time": "0.185760"
  },
  {
    "duration_time": "0.023220",
    "pts_time": "0.208980"
  },
  {
    "duration_time": "0.023220",
    "pts_time": "0.232200"
  },
  {
    "duration_time": "0.023220",
    "pts_time": "0.255420"
  },
  {
    "duration_time": "0.023220",
    "pts_time": "0.278639"
  },
  {
    "duration_time": "0.023220",
    "pts_time": "0.301859"
  },
  {
    "duration_time": "0.023220",
    "pts_time": "0.325079"
  },
  {
    "duration_time": "0.023220",
    "pts_time": "0.348299"
  },
  {
    "duration_time": "0.023220",
    "pts_time": "0.371519"
  },
  {
    "duration_time": "0.023220",
    "pts_time": "0.394739"
  },
  {
    "duration_time": "0.023220",
    "pts_time": "0.417959"
  },
  {
    "duration_time": "0.023220",
    "pts_time": "0.441179"
  },
  {
    "duration_time": "0.023220",
    "pts_time": "0.464399"
  },
  {
    "duration_time": "0.023220",
    "pts_time": "0.487619"
  },
  {
    "duration_time": "0.023220",
    "pts_time": "0.510839"
  },
  {
    "duration_time": "0.023220",
    "pts_time": "0.534059"
  },
  {
    "duration_time": "0.023220",
    "pts_time": "0.557279"
  },
  {
    "duration_time": "0.023220",
    "pts_time": "0.580499"
  },
  {
    "duration_time": "0.023220",
    "pts_time": "0.603719"
  },
  {
    "duration_time": "0.023220",
    "pts_time": "0.626939"
  },
  {
    "duration_time": "0.023220",
    "pts_time": "0.650159"
  },
  {
    "duration_time": "0.023220",
    "pts_time": "0.673379"
  },
  {
    "duration_time": "0.023220",
    "pts_time": "0.696599"
  },
  {
    "duration_time": "0.023220",
    "pts_time": "0.719819"
  },
  {
    "duration_time": "0.023220",
    "pts_time": "0.743039"
  },
  {
    "duration_time": "0.023220",
    "pts_time": "0.766259"
  },
  {
    "duration_time": "0.023220",
    "pts_time": "0.789478"
  },
  {
    "duration_time": "0.023220",
    "pts_time": "0.812698"
  },
  {
    "duration_time": "0.023220",
    "pts_time": "0.835918"
  },
  {
    "duration_time": "0.023220",
    "pts_time": "0.859138"
  },
  {
    "duration_time": "0.023220",
    "pts_time": "0.882358"
  },
  {
    "duration_time": "0.023220",
    "pts_time": "0.905578"
  },
  {
    "duration_time": "0.023220",
    "pts_time": "0.928798"
  },
  {
    "duration_time": "0.023220",
    "pts_time": "0.952018"
  },
  {
    "duration_time": "0.023220",
    "pts_time": "0.975238"
  },
  {
    "duration_time": "0.023220",
    "pts_time": "0.998458"
  },
  {
    "duration_time": "0.023220",
    "pts_time": "1.021678"
  },
  {
    "duration_time": "0.023220",
    "pts_time": "1.044898"
  },
  {
    "duration_time": "0.023220",
    "pts_time": "1.068118"
  },
  {
    "duration_time": "0.023220",
    "pts_time": "1.091338"
  },
  {
    "duration_time": "0.023220",
    "pts_time": "1.114558"
  },
  {
    "duration_time": "0.023220",
    "pts_time": "1.137778"
  },
  {
    "duration_time": "0.023220",
    "pts_time": "1.160998"
  },
  {
    "duration_time": "0.023220",
    "pts_time": "1.184218"
  },
  {
    "duration_time": "0.023220",
    "pts_time": "1.207438"
  },
  {
    "duration_time": "0.023220",
    "pts_time": "1.230658"
  },
  {
    "duration_time": "0.023220",
    "pts_time": "1.253878"
  },
  {
    "duration_time": "0.023220",
    "pts_time": "1.277098"
  },
  {
    "duration_time": "0.023220",
    "pts_time": "1.300317"
  },
  {
    "duration_time": "0.023220",
    "pts_time": "1.323537"
  },
  {
    "duration_time": "0.023220",
    "pts_time": "1.346757"
  },
  {
    "duration_time": "0.023220",
    "pts_time": "1.369977"
  },
  {
    "duration_time": "0.023220",
    "pts_time": "1.393197"
  },
  {
    "duration_time": "0.023220",
    "pts_time": "1.416417"
  },
  {
    "duration_time": "0.023220",
    "pts_time": "1.439637"
  },
  {
    "duration_time": "0.023220",
    "pts_time": "1.462857"
  },
  {
    "duration_time": "0.023220",
    "pts_time": "1.486077"
  },
  {
    "duration_time": "0.023220",
    "pts_time": "1.509297"
  },
  {
    "duration_time": "0.023220",
    "pts_time": "1.532517"
  },
  {
    "duration_time": "0.023220",
    "pts_time": "1.555737"
  },
  {
    "duration_time": "0.023220",
    "pts_time": "1.578957"
  },
  {
    "duration_time": "0.023220",
    "pts_time": "1.602177"
  },
  {
    "duration_time": "0.023220",
    "pts_time": "1.625397"
  },
  {
    "duration_time": "0.023220",
    "pts_time": "1.648617"
  },
  {
    "duration_time": "0.023220",
    "pts_time": "1.671837"
  },
  {
    "duration_time": "0.023220",
    "pts_time": "1.695057"
  },
  {
    "duration_time": "0.023220",
    "pts_time": "1.718277"
  },
  {
    "duration_time": "0.023220",
    "pts_time": "1.741497"
  },
  {
    "duration_time": "0.023220",
    "pts_time": "1.764717"
  },
  {
    "duration_time": "0.023220",
    "pts_time": "1.787937"
  },
  {
    "duration_time": "0.023220",
    "pts_time": "1.811156"
  },
  {
    "duration_time": "0.023220",
    "pts_time": "1.834376"
  },
  {
    "duration_time": "0.023220",
    "pts_time": "1.857596"
  },
  {
    "duration_time": "0.023220",
    "pts_time": "1.880816"
  },
  {
    "duration_time": "0.023220",
    "pts_time": "1.904036"
  },
  {
    "duration_time": "0.023220",
    "pts_time": "1.927256"
  },
  {
    "duration_time": "0.023220",
    "pts_time": "1.950476"
  },
  {
    "duration_time": "0.023220",
    "pts_time": "1.973696"
  },
  {
    "duration_time": "0.023220",
    "pts_time": "1.996916"
  },
  {
    "duration_time": "0.023220",
    "pts_time": "2.020136"
  },
  {
    "duration_time": "0.023220",
    "pts_time": "2.043356"
  },
  {
    "duration_time": "0.023220",
    "pts_time": "2.066576"
  },
  {
    "duration_time": "0.023220",
    "pts_time": "2.089796"
  },
  {
    "duration_time": "0.023220",
    "pts_time": "2.113016"
  },
  {
    "duration_time": "0.023220",
    "pts_time": "2.136236"
  },
  {
    "duration_time": "0.023220",
    "pts_time": "2.159456"
  },
  {
    "duration_time": "0.023220",
    "pts_time": "2.182676"
  },
  {
    "duration_time": "0.023220",
    "pts_time": "2.205896"
  },
  {
    "duration_time": "0.023220",
    "pts_time": "2.229116"
  },
  {
    "duration_time": "0.023220",
    "pts_time": "2.252336"
  },
  {
    "duration_time": "0.023220",
    "pts_time": "2.275556"
  },
  {
    "duration_time": "0.023220",
    "pts_time": "2.298776"
  },
  {
    "duration_time": "0.023220",
    "pts_time": "2.321995"
  },
  {
    "duration_time": "0.023220",
    "pts_time": "2.345215"
  },
  {
    "duration_time": "0.023220",
    "pts_time": "2.368435"
  },
  {
    "duration_time": "0.023220",
    "pts_time": "2.391655"
  },
  {
    "duration_time": "0.023220",
    "pts_time": "2.414875"
  },
  {
    "duration_time": "0.023220",
    "pts_time": "2.438095"
  },
  {
    "duration_time": "0.023220",
    "pts_time": "2.461315"
  },
  {
    "duration_time": "0.023220",
    "pts_time": "2.484535"
  },
  {
    "duration_time": "0.023220",
    "pts_time": "2.507755"
  },
  {
    "duration_time": "0.023220",
    "pts_time": "2.530975"
  },
  {
    "duration_time": "0.023220",
    "pts_time": "2.554195"
  },
  {
    "duration_time": "0.023220",
    "pts_time": "2.577415"
  },
  {
    "duration_time": "0.023220",
    "pts_time": "2.600635"
  },
  {
    "duration_time": "0.023220",
    "pts_time": "2.623855"
  },
  {
    "duration_time": "0.023220",
    "pts_time": "2.647075"
  },
  {
    "duration_time": "0.023220",
    "pts_time": "2.670295"
  },
  {
    "duration_time": "0.023220",
    "pts_time": "2.693515"
  },
  {
    "duration_time": "0.023220",
    "pts_time": "2.716735"
  },
  {
    "duration_time": "0.023220",
    "pts_time": "2.739955"
  },
  {
    "duration_time": "0.023220",
    "pts_time": "2.763175"
  },
  {
    "duration_time": "0.023220",
    "pts_time": "2.786395"
  },
  {
    "duration_time": "0.023220",
    "pts_time": "2.809615"
  },
  {
    "duration_time": "0.023220",
    "pts_time": "2.832834"
  },
  {
    "duration_time": "0.023220",
    "pts_time": "2.856054"
  },
  {
    "duration_time": "0.023220",
    "pts_time": "2.879274"
  },
  {
    "duration_time": "0.023220",
    "pts_time": "2.902494"
  },
  {
    "duration_time": "0.023220",
    "pts_time": "2.925714"
  },
  {
    "duration_time": "0.023220",
    "pts_time": "2.948934"
  },
  {
    "duration_time": "0.023220",
    "pts_time": "2.972154"
  },
  {
    "duration_time": "0.023220",
    "pts_time": "2.995374"
  },
  {
    "duration_time": "0.023220",
    "pts_time": "3.018594"
  },
  {
    "duration_time": "0.023220",
    "pts_time": "3.041814"
  },
  {
    "duration_time": "0.023220",
    "pts_time": "3.065034"
  },
  {
    "duration_time": "0.023220",
    "pts_time": "3.088254"
  },
  {
    "duration_time": "0.023220",
    "pts_time": "3.111474"
  },
  {
    "duration_time": "0.023220",
    "pts_time": "3.134694"
  },
  {
    "duration_time": "0.023220",
    "pts_time": "3.157914"
  },
  {
    "duration_time": "0.023220",
    "pts_time": "3.181134"
  },
  {
    "duration_time": "0.023220",
    "pts_time": "3.204354"
  },
  {
    "duration_time": "0.023220",
    "pts_time": "3.227574"
  },
  {
    "duration_time": "0.023220",
    "pts_time": "3.250794"
  },
  {
    "duration_time": "0.023220",
    "pts_time": "3.274014"
  },
  {
    "duration_time": "0.023220",
    "pts_time": "3.297234"
  },
  {
    "duration_time": "0.023220",
    "pts_time": "3.320454"
  },
  {
    "duration_time": "0.023220",
    "pts_time": "3.343673"
  },
  {
    "duration_time": "0.023220",
    "pts_time": "3.366893"
  },
  {
    "duration_time": "0.023220",
    "pts_time": "3.390113"
  },
  {
    "duration_time": "0.023220",
    "pts_time": "3.413333"
  },
  {
    "duration_time": "0.023220",
    "pts_time": "3.436553"
  },
  {
    "duration_time": "0.023220",
    "pts_time": "3.459773"
  },
  {
    "duration_time": "0.023220",
    "pts_time": "3.482993"
  },
  {
    "duration_time": "0.023220",
    "pts_time": "3.506213"
  },
  {
    "duration_time": "0.023220",
    "pts_time": "3.529433"
  },
  {
    "duration_time": "0.023220",
    "pts_time": "3.552653"
  },
  {
    "duration_time": "0.023220",
    "pts_time": "3.575873"
  },
  {
    "duration_time": "0.023220",
    "pts_time": "3.599093"
  },
  {
    "duration_time": "0.023220",
    "pts_time": "3.622313"
  },
  {
    "duration_time": "0.023220",
    "pts_time": "3.645533"
  },
  {
    "duration_time": "0.023220",
    "pts_time": "3.668753"
  },
  {
    "duration_time": "0.023220",
    "pts_time": "3.691973"
  },
  {
    "duration_time": "0.023220",
    "pts_time": "3.715193"
  },
  {
    "duration_time": "0.023220",
    "pts_time": "3.738413"
  },
  {
    "duration_time": "0.023220",
    "pts_time": "3.761633"
  },
  {
    "duration_time": "0.023220",
    "pts_time": "3.784853"
  },
  {
    "duration_time": "0.023220",
    "pts_time": "3.808073"
  },
  {
    "duration_time": "0.023220",
    "pts_time": "3.831293"
  },
  {
    "duration_time": "0.023220",
    "pts_time": "3.854512"
  },
  {
    "duration_time": "0.023220",
    "pts_time": "3.877732"
  },
  {
    "duration_time": "0.023220",
    "pts_time": "3.900952"
  },
  {
    "duration_time": "0.023220",
    "pts_time": "3.924172"
  },
  {
    "duration_time": "0.023220",
    "pts_time": "3.947392"
  },
  {
    "duration_time": "0.023220",
    "pts_time": "3.970612"
  },
  {
    "duration_time": "0.006168",
    "pts_time": "3.993832"
  }
]
